<mxfile host="app.diagrams.net" modified="2020-06-09T19:33:27.171Z" agent="5.0 (Windows NT 10.0; Win64; x64) AppleWebKit/537.36 (KHTML, like Gecko) Chrome/83.0.4103.97 Safari/537.36" etag="Ji4l8ojgsPD5UC8VyRcD" version="13.2.1" type="github">
  <diagram id="damgPoFkoKH6vWCKskt7" name="Page-1">
    <mxGraphModel dx="2062" dy="1122" grid="1" gridSize="10" guides="1" tooltips="1" connect="1" arrows="1" fold="1" page="1" pageScale="1" pageWidth="850" pageHeight="1100" math="0" shadow="0">
      <root>
        <mxCell id="0" />
        <mxCell id="1" parent="0" />
        <mxCell id="y2c-EJtsocs5d98mtaJN-1" value="External API&lt;br&gt;daily quota 100k&lt;br&gt;100 connections concurrent&lt;br&gt;response time 10s&lt;br&gt;data relevance - 3 hours" style="text;html=1;align=center;verticalAlign=middle;resizable=0;points=[];autosize=1;fillColor=#dae8fc;strokeColor=#6c8ebf;" parent="1" vertex="1">
          <mxGeometry x="800" y="510" width="160" height="80" as="geometry" />
        </mxCell>
        <mxCell id="y2c-EJtsocs5d98mtaJN-2" value="API&lt;br&gt;100 RPM&lt;br&gt;&lt;b&gt;SLA &amp;lt; 100ms&lt;/b&gt;" style="text;html=1;align=center;verticalAlign=middle;resizable=0;points=[];autosize=1;fillColor=#dae8fc;strokeColor=#6c8ebf;" parent="1" vertex="1">
          <mxGeometry x="50" y="218" width="90" height="50" as="geometry" />
        </mxCell>
        <mxCell id="y2c-EJtsocs5d98mtaJN-3" value="Request Id" style="endArrow=classic;html=1;exitX=0.5;exitY=0.5;exitDx=0;exitDy=0;exitPerimeter=0;" parent="1" target="y2c-EJtsocs5d98mtaJN-4" edge="1" source="fk2EO95w5rYZkpuNTI_H-1">
          <mxGeometry width="50" height="50" relative="1" as="geometry">
            <mxPoint x="130" y="163" as="sourcePoint" />
            <mxPoint x="105" y="160" as="targetPoint" />
          </mxGeometry>
        </mxCell>
        <mxCell id="y2c-EJtsocs5d98mtaJN-4" value="LB&lt;br&gt;(nginx)" style="rounded=0;whiteSpace=wrap;html=1;" parent="1" vertex="1">
          <mxGeometry x="230" y="120" width="80" height="71" as="geometry" />
        </mxCell>
        <mxCell id="y2c-EJtsocs5d98mtaJN-11" value="" style="edgeStyle=orthogonalEdgeStyle;rounded=0;orthogonalLoop=1;jettySize=auto;html=1;fillColor=#d5e8d4;strokeColor=#82b366;" parent="1" source="y2c-EJtsocs5d98mtaJN-6" target="y2c-EJtsocs5d98mtaJN-10" edge="1">
          <mxGeometry relative="1" as="geometry" />
        </mxCell>
        <mxCell id="y2c-EJtsocs5d98mtaJN-6" value="Proxy&lt;br&gt;(nodeJs)" style="rounded=0;whiteSpace=wrap;html=1;" parent="1" vertex="1">
          <mxGeometry x="425" y="119" width="84" height="71" as="geometry" />
        </mxCell>
        <mxCell id="y2c-EJtsocs5d98mtaJN-10" value="Cache&lt;br&gt;(redis)&lt;br&gt;" style="rounded=0;whiteSpace=wrap;html=1;" parent="1" vertex="1">
          <mxGeometry x="585" y="119" width="130" height="70" as="geometry" />
        </mxCell>
        <mxCell id="y2c-EJtsocs5d98mtaJN-8" value="cluster" style="text;html=1;align=center;verticalAlign=middle;resizable=0;points=[];autosize=1;" parent="1" vertex="1">
          <mxGeometry x="442" y="99" width="50" height="20" as="geometry" />
        </mxCell>
        <mxCell id="y2c-EJtsocs5d98mtaJN-13" value="found" style="text;html=1;align=center;verticalAlign=middle;resizable=0;points=[];autosize=1;fillColor=#d5e8d4;strokeColor=#82b366;" parent="1" vertex="1">
          <mxGeometry x="520" y="175.5" width="50" height="20" as="geometry" />
        </mxCell>
        <mxCell id="y2c-EJtsocs5d98mtaJN-14" value="" style="endArrow=classic;html=1;fontColor=#198019;fillColor=#f8cecc;strokeColor=#b85450;entryX=0.5;entryY=0;entryDx=0;entryDy=0;" parent="1" edge="1" target="y2c-EJtsocs5d98mtaJN-17" source="y2c-EJtsocs5d98mtaJN-6">
          <mxGeometry width="50" height="50" relative="1" as="geometry">
            <mxPoint x="456" y="198" as="sourcePoint" />
            <mxPoint x="465" y="340" as="targetPoint" />
          </mxGeometry>
        </mxCell>
        <mxCell id="y2c-EJtsocs5d98mtaJN-15" value="not found" style="text;html=1;align=center;verticalAlign=middle;resizable=0;points=[];autosize=1;fontColor=#FF0000;" parent="1" vertex="1">
          <mxGeometry x="470" y="257.5" width="70" height="20" as="geometry" />
        </mxCell>
        <mxCell id="y2c-EJtsocs5d98mtaJN-17" value="&lt;font color=&quot;#050505&quot;&gt;Queue&lt;br&gt;(sqs)&lt;/font&gt;" style="rounded=0;whiteSpace=wrap;html=1;fontColor=#FF0000;" parent="1" vertex="1">
          <mxGeometry x="410" y="340" width="120" height="60" as="geometry" />
        </mxCell>
        <mxCell id="y2c-EJtsocs5d98mtaJN-18" value="" style="endArrow=classic;html=1;fontColor=#FF0000;exitX=0.5;exitY=1;exitDx=0;exitDy=0;" parent="1" source="y2c-EJtsocs5d98mtaJN-17" edge="1">
          <mxGeometry width="50" height="50" relative="1" as="geometry">
            <mxPoint x="420" y="570" as="sourcePoint" />
            <mxPoint x="470" y="520" as="targetPoint" />
          </mxGeometry>
        </mxCell>
        <mxCell id="y2c-EJtsocs5d98mtaJN-21" value="" style="edgeStyle=orthogonalEdgeStyle;rounded=0;orthogonalLoop=1;jettySize=auto;html=1;fontColor=#FF0000;" parent="1" source="y2c-EJtsocs5d98mtaJN-19" target="y2c-EJtsocs5d98mtaJN-20" edge="1">
          <mxGeometry relative="1" as="geometry" />
        </mxCell>
        <mxCell id="y2c-EJtsocs5d98mtaJN-19" value="&lt;font color=&quot;#050505&quot;&gt;Worker &lt;br&gt;(nodejs)&lt;/font&gt;" style="rounded=0;whiteSpace=wrap;html=1;fontColor=#FF0000;" parent="1" vertex="1">
          <mxGeometry x="410" y="520" width="120" height="60" as="geometry" />
        </mxCell>
        <mxCell id="y2c-EJtsocs5d98mtaJN-20" value="&lt;font color=&quot;#050505&quot;&gt;Third Party API&lt;/font&gt;" style="rounded=0;whiteSpace=wrap;html=1;fontColor=#FF0000;strokeColor=#0000FF;fontStyle=1" parent="1" vertex="1">
          <mxGeometry x="640" y="510" width="130" height="80" as="geometry" />
        </mxCell>
        <mxCell id="y2c-EJtsocs5d98mtaJN-23" value="" style="endArrow=classic;html=1;fontColor=#FF0000;entryX=1;entryY=0.75;entryDx=0;entryDy=0;fillColor=#d5e8d4;strokeColor=#82b366;" parent="1" edge="1" target="y2c-EJtsocs5d98mtaJN-4">
          <mxGeometry width="50" height="50" relative="1" as="geometry">
            <mxPoint x="425" y="174" as="sourcePoint" />
            <mxPoint x="320" y="177.5" as="targetPoint" />
          </mxGeometry>
        </mxCell>
        <mxCell id="y2c-EJtsocs5d98mtaJN-25" value="&lt;span style=&quot;color: rgb(0 , 0 , 0)&quot;&gt;Cache&lt;br&gt;storage - 100MB daily &lt;br&gt;(request -&amp;gt; 1kb)&lt;/span&gt;&lt;br style=&quot;color: rgb(0 , 0 , 0)&quot;&gt;" style="text;html=1;align=center;verticalAlign=middle;resizable=0;points=[];autosize=1;fontColor=#FF0000;" parent="1" vertex="1">
          <mxGeometry x="585" y="60" width="130" height="50" as="geometry" />
        </mxCell>
        <mxCell id="y2c-EJtsocs5d98mtaJN-26" value="" style="endArrow=classic;html=1;fontColor=#FF0000;entryX=0.5;entryY=1;entryDx=0;entryDy=0;" parent="1" target="y2c-EJtsocs5d98mtaJN-10" edge="1" source="y2c-EJtsocs5d98mtaJN-19">
          <mxGeometry width="50" height="50" relative="1" as="geometry">
            <mxPoint x="450" y="540" as="sourcePoint" />
            <mxPoint x="500" y="490" as="targetPoint" />
          </mxGeometry>
        </mxCell>
        <mxCell id="y2c-EJtsocs5d98mtaJN-27" value="" style="endArrow=classic;html=1;fontColor=#FF0000;" parent="1" target="y2c-EJtsocs5d98mtaJN-28" edge="1">
          <mxGeometry width="50" height="50" relative="1" as="geometry">
            <mxPoint x="530" y="540" as="sourcePoint" />
            <mxPoint x="660" y="390" as="targetPoint" />
          </mxGeometry>
        </mxCell>
        <mxCell id="fk2EO95w5rYZkpuNTI_H-24" value="" style="edgeStyle=orthogonalEdgeStyle;rounded=0;orthogonalLoop=1;jettySize=auto;html=1;entryX=0.5;entryY=0;entryDx=0;entryDy=0;" edge="1" parent="1" source="y2c-EJtsocs5d98mtaJN-28" target="y2c-EJtsocs5d98mtaJN-20">
          <mxGeometry relative="1" as="geometry">
            <mxPoint x="705" y="480" as="targetPoint" />
          </mxGeometry>
        </mxCell>
        <mxCell id="y2c-EJtsocs5d98mtaJN-28" value="Queue&lt;br&gt;(priorityQueue)&lt;br&gt;" style="rounded=0;whiteSpace=wrap;html=1;fontColor=#0000FF;" parent="1" vertex="1">
          <mxGeometry x="630" y="330" width="150" height="70" as="geometry" />
        </mxCell>
        <mxCell id="y2c-EJtsocs5d98mtaJN-29" value="&lt;span style=&quot;color: rgb(0 , 0 , 255)&quot;&gt;&amp;lt;requestId, Timestamp&amp;gt;&lt;br&gt;&lt;/span&gt;&lt;font color=&quot;#0000ff&quot;&gt;ensure maximum 100 concurrent connections&lt;br&gt;pull 100 from heap.&lt;br&gt;poll every 1m/3m/10m and push again if there is no answer&lt;/font&gt;" style="text;html=1;align=center;verticalAlign=middle;resizable=0;points=[];autosize=1;fontColor=#FF0000;" parent="1" vertex="1">
          <mxGeometry x="790" y="340" width="330" height="60" as="geometry" />
        </mxCell>
        <mxCell id="y2c-EJtsocs5d98mtaJN-30" value="external API has asynchronus workflow -&lt;br&gt;at first it returns a callback url &lt;br&gt;and then after 1m/3m/10m the data can be fetched from url" style="text;html=1;align=center;verticalAlign=middle;resizable=0;points=[];autosize=1;fontColor=#0000FF;" parent="1" vertex="1">
          <mxGeometry x="310" y="640" width="330" height="50" as="geometry" />
        </mxCell>
        <mxCell id="fk2EO95w5rYZkpuNTI_H-1" value="Customer" style="shape=umlActor;verticalLabelPosition=bottom;labelBackgroundColor=#ffffff;verticalAlign=top;html=1;outlineConnect=0;strokeColor=#0000FF;" vertex="1" parent="1">
          <mxGeometry x="80" y="127" width="30" height="60" as="geometry" />
        </mxCell>
        <mxCell id="fk2EO95w5rYZkpuNTI_H-14" value="" style="endArrow=classic;html=1;entryX=0;entryY=0.5;entryDx=0;entryDy=0;fillColor=#d5e8d4;strokeColor=#82b366;" edge="1" parent="1" source="y2c-EJtsocs5d98mtaJN-4" target="y2c-EJtsocs5d98mtaJN-6">
          <mxGeometry width="50" height="50" relative="1" as="geometry">
            <mxPoint x="200" y="550" as="sourcePoint" />
            <mxPoint x="450" y="550" as="targetPoint" />
          </mxGeometry>
        </mxCell>
        <mxCell id="fk2EO95w5rYZkpuNTI_H-15" value="&lt;span style=&quot;color: rgb(0 , 0 , 0) ; font-family: &amp;#34;helvetica&amp;#34; ; font-size: 12px ; font-style: normal ; font-weight: 400 ; letter-spacing: normal ; text-align: center ; text-indent: 0px ; text-transform: none ; word-spacing: 0px ; background-color: rgb(248 , 249 , 250) ; display: inline ; float: none&quot;&gt;&amp;lt;reqId,JSON&amp;gt;&lt;/span&gt;&lt;br style=&quot;color: rgb(0 , 0 , 0) ; font-family: &amp;#34;helvetica&amp;#34; ; font-size: 12px ; font-style: normal ; font-weight: 400 ; letter-spacing: normal ; text-align: center ; text-indent: 0px ; text-transform: none ; word-spacing: 0px ; background-color: rgb(248 , 249 , 250)&quot;&gt;&lt;span style=&quot;color: rgb(0 , 0 , 0) ; font-family: &amp;#34;helvetica&amp;#34; ; font-size: 12px ; font-style: normal ; font-weight: 400 ; letter-spacing: normal ; text-align: center ; text-indent: 0px ; text-transform: none ; word-spacing: 0px ; background-color: rgb(248 , 249 , 250) ; display: inline ; float: none&quot;&gt;ttl - 3 hours&lt;br&gt;&lt;span style=&quot;font-family: &amp;#34;helvetica&amp;#34;&quot;&gt;&lt;br&gt;&amp;lt;reqId, pending&amp;gt; -&amp;nbsp;&lt;/span&gt;&lt;br style=&quot;font-family: &amp;#34;helvetica&amp;#34;&quot;&gt;&lt;span style=&quot;font-family: &amp;#34;helvetica&amp;#34;&quot;&gt;don&#39;t let many concurrent requests&amp;nbsp;&lt;/span&gt;&lt;br style=&quot;font-family: &amp;#34;helvetica&amp;#34;&quot;&gt;&lt;span style=&quot;font-family: &amp;#34;helvetica&amp;#34;&quot;&gt;goto queue&lt;/span&gt;&lt;br&gt;&lt;/span&gt;" style="text;whiteSpace=wrap;html=1;" vertex="1" parent="1">
          <mxGeometry x="740" y="110" width="210" height="94.5" as="geometry" />
        </mxCell>
        <mxCell id="fk2EO95w5rYZkpuNTI_H-16" value="" style="endArrow=classic;html=1;fontColor=#FF0000;entryX=1;entryY=0.75;entryDx=0;entryDy=0;exitX=0;exitY=0.75;exitDx=0;exitDy=0;fillColor=#d5e8d4;strokeColor=#82b366;" edge="1" parent="1" source="y2c-EJtsocs5d98mtaJN-10" target="y2c-EJtsocs5d98mtaJN-6">
          <mxGeometry width="50" height="50" relative="1" as="geometry">
            <mxPoint x="595" y="172" as="sourcePoint" />
            <mxPoint x="510" y="170" as="targetPoint" />
          </mxGeometry>
        </mxCell>
        <mxCell id="fk2EO95w5rYZkpuNTI_H-18" value="&lt;span style=&quot;font-family: &amp;#34;helvetica&amp;#34; ; font-size: 12px ; font-style: normal ; font-weight: 400 ; letter-spacing: normal ; text-align: center ; text-indent: 0px ; text-transform: none ; word-spacing: 0px ; background-color: rgb(248 , 249 , 250) ; float: none ; display: inline&quot;&gt;not found: &lt;br&gt;status 20* &lt;br&gt;(request submitted)&lt;/span&gt;" style="text;whiteSpace=wrap;html=1;fontColor=#FF0000;" vertex="1" parent="1">
          <mxGeometry x="332" y="195.5" width="110" height="62" as="geometry" />
        </mxCell>
        <mxCell id="fk2EO95w5rYZkpuNTI_H-19" value="JSON" style="text;html=1;align=center;verticalAlign=middle;resizable=0;points=[];autosize=1;fillColor=#d5e8d4;strokeColor=#82b366;" vertex="1" parent="1">
          <mxGeometry x="336" y="175.5" width="50" height="20" as="geometry" />
        </mxCell>
      </root>
    </mxGraphModel>
  </diagram>
</mxfile>
